<svg width="518" height="518" viewBox="0 0 518 518" fill="none" xmlns="http://www.w3.org/2000/svg">
<path d="M0.426995 357.803L6.60913 359.863L2.48771 363.985L0.426995 357.803Z" fill="url(#paint0_linear_256_3774)" fill-opacity="0.2"/>
<path d="M51.0537 408.43L58.5168 410.917L53.5414 415.893L51.0537 408.43Z" fill="url(#paint1_linear_256_3774)" fill-opacity="0.2"/>
<path d="M102.107 459.483L109.57 461.971L104.595 466.946L102.107 459.483Z" fill="url(#paint2_linear_256_3774)" fill-opacity="0.2"/>
<path d="M153.588 510.964L159.77 513.025L155.649 517.146L153.588 510.964Z" fill="url(#paint3_linear_256_3774)" fill-opacity="0.2"/>
<path d="M0 255.268L7.46312 257.756L2.48771 262.732L0 255.268Z" fill="url(#paint4_linear_256_3774)" fill-opacity="0.2"/>
<path d="M50.1811 305.45L60.2619 308.81L53.5414 315.53L50.1811 305.45Z" fill="url(#paint5_linear_256_3774)" fill-opacity="0.2"/>
<path d="M100.362 355.631L113.061 359.863L104.595 368.329L100.362 355.631Z" fill="url(#paint6_linear_256_3774)" fill-opacity="0.2"/>
<path d="M151.416 406.684L164.114 410.917L155.649 419.383L151.416 406.684Z" fill="url(#paint7_linear_256_3774)" fill-opacity="0.2"/>
<path d="M203.342 458.611L213.423 461.971L206.702 468.691L203.342 458.611Z" fill="url(#paint8_linear_256_3774)" fill-opacity="0.2"/>
<path d="M255.268 510.537L262.732 513.025L257.756 518L255.268 510.537Z" fill="url(#paint9_linear_256_3774)" fill-opacity="0.2"/>
<path d="M0.426995 153.588L6.60913 155.649L2.48771 159.77L0.426995 153.588Z" fill="url(#paint10_linear_256_3774)" fill-opacity="0.2"/>
<path d="M50.1811 203.342L60.2619 206.702L53.5414 213.423L50.1811 203.342Z" fill="url(#paint11_linear_256_3774)" fill-opacity="0.2"/>
<path d="M99.9353 253.096L113.915 257.756L104.595 267.076L99.9353 253.096Z" fill="url(#paint12_linear_256_3774)" fill-opacity="0.2"/>
<path d="M149.671 302.832L167.605 308.81L155.649 320.766L149.671 302.832Z" fill="url(#paint13_linear_256_3774)" fill-opacity="0.2"/>
<path d="M200.725 353.886L218.658 359.863L206.702 371.819L200.725 353.886Z" fill="url(#paint14_linear_256_3774)" fill-opacity="0.2"/>
<path d="M253.096 406.257L267.076 410.917L257.756 420.237L253.096 406.257Z" fill="url(#paint15_linear_256_3774)" fill-opacity="0.2"/>
<path d="M305.45 458.611L315.53 461.971L308.81 468.691L305.45 458.611Z" fill="url(#paint16_linear_256_3774)" fill-opacity="0.2"/>
<path d="M357.803 510.964L363.985 513.025L359.863 517.146L357.803 510.964Z" fill="url(#paint17_linear_256_3774)" fill-opacity="0.2"/>
<path d="M51.0537 102.107L58.5168 104.595L53.5414 109.57L51.0537 102.107Z" fill="url(#paint18_linear_256_3774)" fill-opacity="0.2"/>
<path d="M100.362 151.416L113.061 155.649L104.595 164.114L100.362 151.416Z" fill="url(#paint19_linear_256_3774)" fill-opacity="0.2"/>
<path d="M149.671 200.725L167.605 206.702L155.649 218.658L149.671 200.725Z" fill="url(#paint20_linear_256_3774)" fill-opacity="0.2"/>
<path d="M198.979 250.033L222.148 257.756L206.702 273.202L198.979 250.033Z" fill="url(#paint21_linear_256_3774)" fill-opacity="0.2"/>
<path d="M250.033 301.087L273.202 308.81L257.756 324.256L250.033 301.087Z" fill="url(#paint22_linear_256_3774)" fill-opacity="0.2"/>
<path d="M302.832 353.886L320.766 359.863L308.81 371.819L302.832 353.886Z" fill="url(#paint23_linear_256_3774)" fill-opacity="0.2"/>
<path d="M355.631 406.684L368.329 410.917L359.863 419.383L355.631 406.684Z" fill="url(#paint24_linear_256_3774)" fill-opacity="0.2"/>
<path d="M408.43 459.483L415.893 461.971L410.917 466.946L408.43 459.483Z" fill="url(#paint25_linear_256_3774)" fill-opacity="0.2"/>
<path d="M102.107 51.0537L109.57 53.5414L104.595 58.5168L102.107 51.0537Z" fill="url(#paint26_linear_256_3774)" fill-opacity="0.2"/>
<path d="M151.416 100.362L164.114 104.595L155.649 113.061L151.416 100.362Z" fill="url(#paint27_linear_256_3774)" fill-opacity="0.2"/>
<path d="M200.725 149.671L218.658 155.649L206.702 167.605L200.725 149.671Z" fill="url(#paint28_linear_256_3774)" fill-opacity="0.2"/>
<path d="M250.033 198.979L273.202 206.702L257.756 222.149L250.033 198.979Z" fill="url(#paint29_linear_256_3774)" fill-opacity="0.2"/>
<path d="M301.087 250.033L324.256 257.756L308.81 273.202L301.087 250.033Z" fill="url(#paint30_linear_256_3774)" fill-opacity="0.2"/>
<path d="M353.886 302.832L371.819 308.81L359.863 320.766L353.886 302.832Z" fill="url(#paint31_linear_256_3774)" fill-opacity="0.2"/>
<path d="M406.684 355.631L419.383 359.863L410.917 368.329L406.684 355.631Z" fill="url(#paint32_linear_256_3774)" fill-opacity="0.2"/>
<path d="M459.483 408.43L466.946 410.917L461.971 415.893L459.483 408.43Z" fill="url(#paint33_linear_256_3774)" fill-opacity="0.2"/>
<path d="M153.588 0.427003L159.77 2.48772L155.649 6.60914L153.588 0.427003Z" fill="url(#paint34_linear_256_3774)" fill-opacity="0.2"/>
<path d="M203.342 50.1811L213.423 53.5414L206.702 60.2619L203.342 50.1811Z" fill="url(#paint35_linear_256_3774)" fill-opacity="0.2"/>
<path d="M253.096 99.9353L267.076 104.595L257.756 113.915L253.096 99.9353Z" fill="url(#paint36_linear_256_3774)" fill-opacity="0.2"/>
<path d="M302.832 149.671L320.766 155.649L308.81 167.605L302.832 149.671Z" fill="url(#paint37_linear_256_3774)" fill-opacity="0.2"/>
<path d="M353.886 200.725L371.819 206.702L359.863 218.658L353.886 200.725Z" fill="url(#paint38_linear_256_3774)" fill-opacity="0.2"/>
<path d="M406.257 253.096L420.237 257.756L410.917 267.076L406.257 253.096Z" fill="url(#paint39_linear_256_3774)" fill-opacity="0.2"/>
<path d="M458.611 305.45L468.691 308.81L461.971 315.53L458.611 305.45Z" fill="url(#paint40_linear_256_3774)" fill-opacity="0.2"/>
<path d="M510.964 357.803L517.146 359.863L513.025 363.985L510.964 357.803Z" fill="url(#paint41_linear_256_3774)" fill-opacity="0.2"/>
<path d="M255.268 0L262.732 2.48771L257.756 7.46312L255.268 0Z" fill="url(#paint42_linear_256_3774)" fill-opacity="0.2"/>
<path d="M305.45 50.1811L315.53 53.5414L308.81 60.2619L305.45 50.1811Z" fill="url(#paint43_linear_256_3774)" fill-opacity="0.2"/>
<path d="M355.631 100.362L368.329 104.595L359.863 113.061L355.631 100.362Z" fill="url(#paint44_linear_256_3774)" fill-opacity="0.2"/>
<path d="M406.684 151.416L419.383 155.649L410.917 164.114L406.684 151.416Z" fill="url(#paint45_linear_256_3774)" fill-opacity="0.2"/>
<path d="M458.611 203.342L468.691 206.702L461.971 213.423L458.611 203.342Z" fill="url(#paint46_linear_256_3774)" fill-opacity="0.2"/>
<path d="M510.537 255.268L518 257.756L513.025 262.732L510.537 255.268Z" fill="url(#paint47_linear_256_3774)" fill-opacity="0.2"/>
<path d="M357.803 0.427002L363.985 2.48771L359.863 6.60914L357.803 0.427002Z" fill="url(#paint48_linear_256_3774)" fill-opacity="0.2"/>
<path d="M408.43 51.0537L415.893 53.5414L410.917 58.5168L408.43 51.0537Z" fill="url(#paint49_linear_256_3774)" fill-opacity="0.2"/>
<path d="M459.483 102.107L466.946 104.595L461.971 109.57L459.483 102.107Z" fill="url(#paint50_linear_256_3774)" fill-opacity="0.2"/>
<path d="M510.964 153.588L517.146 155.649L513.025 159.77L510.964 153.588Z" fill="url(#paint51_linear_256_3774)" fill-opacity="0.2"/>
<defs>
<linearGradient id="paint0_linear_256_3774" x1="-1.59612e-06" y1="270" x2="495.5" y2="277" gradientUnits="userSpaceOnUse">
<stop stop-color="white"/>
<stop offset="1" stop-color="#999999" stop-opacity="0.5"/>
</linearGradient>
<linearGradient id="paint1_linear_256_3774" x1="-1.59612e-06" y1="270" x2="495.5" y2="277" gradientUnits="userSpaceOnUse">
<stop stop-color="white"/>
<stop offset="1" stop-color="#999999" stop-opacity="0.5"/>
</linearGradient>
<linearGradient id="paint2_linear_256_3774" x1="-1.59612e-06" y1="270" x2="495.5" y2="277" gradientUnits="userSpaceOnUse">
<stop stop-color="white"/>
<stop offset="1" stop-color="#999999" stop-opacity="0.5"/>
</linearGradient>
<linearGradient id="paint3_linear_256_3774" x1="-1.59612e-06" y1="270" x2="495.5" y2="277" gradientUnits="userSpaceOnUse">
<stop stop-color="white"/>
<stop offset="1" stop-color="#999999" stop-opacity="0.5"/>
</linearGradient>
<linearGradient id="paint4_linear_256_3774" x1="-1.59612e-06" y1="270" x2="495.5" y2="277" gradientUnits="userSpaceOnUse">
<stop stop-color="white"/>
<stop offset="1" stop-color="#999999" stop-opacity="0.5"/>
</linearGradient>
<linearGradient id="paint5_linear_256_3774" x1="-1.59612e-06" y1="270" x2="495.5" y2="277" gradientUnits="userSpaceOnUse">
<stop stop-color="white"/>
<stop offset="1" stop-color="#999999" stop-opacity="0.5"/>
</linearGradient>
<linearGradient id="paint6_linear_256_3774" x1="-1.59612e-06" y1="270" x2="495.5" y2="277" gradientUnits="userSpaceOnUse">
<stop stop-color="white"/>
<stop offset="1" stop-color="#999999" stop-opacity="0.5"/>
</linearGradient>
<linearGradient id="paint7_linear_256_3774" x1="-1.59612e-06" y1="270" x2="495.5" y2="277" gradientUnits="userSpaceOnUse">
<stop stop-color="white"/>
<stop offset="1" stop-color="#999999" stop-opacity="0.5"/>
</linearGradient>
<linearGradient id="paint8_linear_256_3774" x1="-1.59612e-06" y1="270" x2="495.5" y2="277" gradientUnits="userSpaceOnUse">
<stop stop-color="white"/>
<stop offset="1" stop-color="#999999" stop-opacity="0.5"/>
</linearGradient>
<linearGradient id="paint9_linear_256_3774" x1="-1.59612e-06" y1="270" x2="495.5" y2="277" gradientUnits="userSpaceOnUse">
<stop stop-color="white"/>
<stop offset="1" stop-color="#999999" stop-opacity="0.5"/>
</linearGradient>
<linearGradient id="paint10_linear_256_3774" x1="-1.59612e-06" y1="270" x2="495.5" y2="277" gradientUnits="userSpaceOnUse">
<stop stop-color="white"/>
<stop offset="1" stop-color="#999999" stop-opacity="0.5"/>
</linearGradient>
<linearGradient id="paint11_linear_256_3774" x1="-1.59612e-06" y1="270" x2="495.5" y2="277" gradientUnits="userSpaceOnUse">
<stop stop-color="white"/>
<stop offset="1" stop-color="#999999" stop-opacity="0.5"/>
</linearGradient>
<linearGradient id="paint12_linear_256_3774" x1="-1.59612e-06" y1="270" x2="495.5" y2="277" gradientUnits="userSpaceOnUse">
<stop stop-color="white"/>
<stop offset="1" stop-color="#999999" stop-opacity="0.5"/>
</linearGradient>
<linearGradient id="paint13_linear_256_3774" x1="-1.59612e-06" y1="270" x2="495.5" y2="277" gradientUnits="userSpaceOnUse">
<stop stop-color="white"/>
<stop offset="1" stop-color="#999999" stop-opacity="0.5"/>
</linearGradient>
<linearGradient id="paint14_linear_256_3774" x1="-1.59612e-06" y1="270" x2="495.5" y2="277" gradientUnits="userSpaceOnUse">
<stop stop-color="white"/>
<stop offset="1" stop-color="#999999" stop-opacity="0.5"/>
</linearGradient>
<linearGradient id="paint15_linear_256_3774" x1="-1.59612e-06" y1="270" x2="495.5" y2="277" gradientUnits="userSpaceOnUse">
<stop stop-color="white"/>
<stop offset="1" stop-color="#999999" stop-opacity="0.5"/>
</linearGradient>
<linearGradient id="paint16_linear_256_3774" x1="-1.59612e-06" y1="270" x2="495.5" y2="277" gradientUnits="userSpaceOnUse">
<stop stop-color="white"/>
<stop offset="1" stop-color="#999999" stop-opacity="0.5"/>
</linearGradient>
<linearGradient id="paint17_linear_256_3774" x1="-1.59612e-06" y1="270" x2="495.5" y2="277" gradientUnits="userSpaceOnUse">
<stop stop-color="white"/>
<stop offset="1" stop-color="#999999" stop-opacity="0.5"/>
</linearGradient>
<linearGradient id="paint18_linear_256_3774" x1="-1.59612e-06" y1="270" x2="495.5" y2="277" gradientUnits="userSpaceOnUse">
<stop stop-color="white"/>
<stop offset="1" stop-color="#999999" stop-opacity="0.5"/>
</linearGradient>
<linearGradient id="paint19_linear_256_3774" x1="-1.59612e-06" y1="270" x2="495.5" y2="277" gradientUnits="userSpaceOnUse">
<stop stop-color="white"/>
<stop offset="1" stop-color="#999999" stop-opacity="0.5"/>
</linearGradient>
<linearGradient id="paint20_linear_256_3774" x1="-1.59612e-06" y1="270" x2="495.5" y2="277" gradientUnits="userSpaceOnUse">
<stop stop-color="white"/>
<stop offset="1" stop-color="#999999" stop-opacity="0.5"/>
</linearGradient>
<linearGradient id="paint21_linear_256_3774" x1="-1.59612e-06" y1="270" x2="495.5" y2="277" gradientUnits="userSpaceOnUse">
<stop stop-color="white"/>
<stop offset="1" stop-color="#999999" stop-opacity="0.5"/>
</linearGradient>
<linearGradient id="paint22_linear_256_3774" x1="-1.59612e-06" y1="270" x2="495.5" y2="277" gradientUnits="userSpaceOnUse">
<stop stop-color="white"/>
<stop offset="1" stop-color="#999999" stop-opacity="0.5"/>
</linearGradient>
<linearGradient id="paint23_linear_256_3774" x1="-1.59612e-06" y1="270" x2="495.5" y2="277" gradientUnits="userSpaceOnUse">
<stop stop-color="white"/>
<stop offset="1" stop-color="#999999" stop-opacity="0.5"/>
</linearGradient>
<linearGradient id="paint24_linear_256_3774" x1="-1.59612e-06" y1="270" x2="495.5" y2="277" gradientUnits="userSpaceOnUse">
<stop stop-color="white"/>
<stop offset="1" stop-color="#999999" stop-opacity="0.5"/>
</linearGradient>
<linearGradient id="paint25_linear_256_3774" x1="-1.59612e-06" y1="270" x2="495.5" y2="277" gradientUnits="userSpaceOnUse">
<stop stop-color="white"/>
<stop offset="1" stop-color="#999999" stop-opacity="0.5"/>
</linearGradient>
<linearGradient id="paint26_linear_256_3774" x1="-1.59612e-06" y1="270" x2="495.5" y2="277" gradientUnits="userSpaceOnUse">
<stop stop-color="white"/>
<stop offset="1" stop-color="#999999" stop-opacity="0.5"/>
</linearGradient>
<linearGradient id="paint27_linear_256_3774" x1="-1.59612e-06" y1="270" x2="495.5" y2="277" gradientUnits="userSpaceOnUse">
<stop stop-color="white"/>
<stop offset="1" stop-color="#999999" stop-opacity="0.5"/>
</linearGradient>
<linearGradient id="paint28_linear_256_3774" x1="-1.59612e-06" y1="270" x2="495.5" y2="277" gradientUnits="userSpaceOnUse">
<stop stop-color="white"/>
<stop offset="1" stop-color="#999999" stop-opacity="0.5"/>
</linearGradient>
<linearGradient id="paint29_linear_256_3774" x1="-1.59612e-06" y1="270" x2="495.5" y2="277" gradientUnits="userSpaceOnUse">
<stop stop-color="white"/>
<stop offset="1" stop-color="#999999" stop-opacity="0.5"/>
</linearGradient>
<linearGradient id="paint30_linear_256_3774" x1="-1.59612e-06" y1="270" x2="495.5" y2="277" gradientUnits="userSpaceOnUse">
<stop stop-color="white"/>
<stop offset="1" stop-color="#999999" stop-opacity="0.5"/>
</linearGradient>
<linearGradient id="paint31_linear_256_3774" x1="-1.59612e-06" y1="270" x2="495.5" y2="277" gradientUnits="userSpaceOnUse">
<stop stop-color="white"/>
<stop offset="1" stop-color="#999999" stop-opacity="0.5"/>
</linearGradient>
<linearGradient id="paint32_linear_256_3774" x1="-1.59612e-06" y1="270" x2="495.5" y2="277" gradientUnits="userSpaceOnUse">
<stop stop-color="white"/>
<stop offset="1" stop-color="#999999" stop-opacity="0.5"/>
</linearGradient>
<linearGradient id="paint33_linear_256_3774" x1="-1.59612e-06" y1="270" x2="495.5" y2="277" gradientUnits="userSpaceOnUse">
<stop stop-color="white"/>
<stop offset="1" stop-color="#999999" stop-opacity="0.5"/>
</linearGradient>
<linearGradient id="paint34_linear_256_3774" x1="-1.59612e-06" y1="270" x2="495.5" y2="277" gradientUnits="userSpaceOnUse">
<stop stop-color="white"/>
<stop offset="1" stop-color="#999999" stop-opacity="0.5"/>
</linearGradient>
<linearGradient id="paint35_linear_256_3774" x1="-1.59612e-06" y1="270" x2="495.5" y2="277" gradientUnits="userSpaceOnUse">
<stop stop-color="white"/>
<stop offset="1" stop-color="#999999" stop-opacity="0.5"/>
</linearGradient>
<linearGradient id="paint36_linear_256_3774" x1="-1.59612e-06" y1="270" x2="495.5" y2="277" gradientUnits="userSpaceOnUse">
<stop stop-color="white"/>
<stop offset="1" stop-color="#999999" stop-opacity="0.5"/>
</linearGradient>
<linearGradient id="paint37_linear_256_3774" x1="-1.59612e-06" y1="270" x2="495.5" y2="277" gradientUnits="userSpaceOnUse">
<stop stop-color="white"/>
<stop offset="1" stop-color="#999999" stop-opacity="0.5"/>
</linearGradient>
<linearGradient id="paint38_linear_256_3774" x1="-1.59612e-06" y1="270" x2="495.5" y2="277" gradientUnits="userSpaceOnUse">
<stop stop-color="white"/>
<stop offset="1" stop-color="#999999" stop-opacity="0.5"/>
</linearGradient>
<linearGradient id="paint39_linear_256_3774" x1="-1.59612e-06" y1="270" x2="495.5" y2="277" gradientUnits="userSpaceOnUse">
<stop stop-color="white"/>
<stop offset="1" stop-color="#999999" stop-opacity="0.5"/>
</linearGradient>
<linearGradient id="paint40_linear_256_3774" x1="-1.59612e-06" y1="270" x2="495.5" y2="277" gradientUnits="userSpaceOnUse">
<stop stop-color="white"/>
<stop offset="1" stop-color="#999999" stop-opacity="0.5"/>
</linearGradient>
<linearGradient id="paint41_linear_256_3774" x1="-1.59612e-06" y1="270" x2="495.5" y2="277" gradientUnits="userSpaceOnUse">
<stop stop-color="white"/>
<stop offset="1" stop-color="#999999" stop-opacity="0.5"/>
</linearGradient>
<linearGradient id="paint42_linear_256_3774" x1="-1.59612e-06" y1="270" x2="495.5" y2="277" gradientUnits="userSpaceOnUse">
<stop stop-color="white"/>
<stop offset="1" stop-color="#999999" stop-opacity="0.5"/>
</linearGradient>
<linearGradient id="paint43_linear_256_3774" x1="-1.59612e-06" y1="270" x2="495.5" y2="277" gradientUnits="userSpaceOnUse">
<stop stop-color="white"/>
<stop offset="1" stop-color="#999999" stop-opacity="0.5"/>
</linearGradient>
<linearGradient id="paint44_linear_256_3774" x1="-1.59612e-06" y1="270" x2="495.5" y2="277" gradientUnits="userSpaceOnUse">
<stop stop-color="white"/>
<stop offset="1" stop-color="#999999" stop-opacity="0.5"/>
</linearGradient>
<linearGradient id="paint45_linear_256_3774" x1="-1.59612e-06" y1="270" x2="495.5" y2="277" gradientUnits="userSpaceOnUse">
<stop stop-color="white"/>
<stop offset="1" stop-color="#999999" stop-opacity="0.5"/>
</linearGradient>
<linearGradient id="paint46_linear_256_3774" x1="-1.59612e-06" y1="270" x2="495.5" y2="277" gradientUnits="userSpaceOnUse">
<stop stop-color="white"/>
<stop offset="1" stop-color="#999999" stop-opacity="0.5"/>
</linearGradient>
<linearGradient id="paint47_linear_256_3774" x1="-1.59612e-06" y1="270" x2="495.5" y2="277" gradientUnits="userSpaceOnUse">
<stop stop-color="white"/>
<stop offset="1" stop-color="#999999" stop-opacity="0.5"/>
</linearGradient>
<linearGradient id="paint48_linear_256_3774" x1="-1.59612e-06" y1="270" x2="495.5" y2="277" gradientUnits="userSpaceOnUse">
<stop stop-color="white"/>
<stop offset="1" stop-color="#999999" stop-opacity="0.5"/>
</linearGradient>
<linearGradient id="paint49_linear_256_3774" x1="-1.59612e-06" y1="270" x2="495.5" y2="277" gradientUnits="userSpaceOnUse">
<stop stop-color="white"/>
<stop offset="1" stop-color="#999999" stop-opacity="0.5"/>
</linearGradient>
<linearGradient id="paint50_linear_256_3774" x1="-1.59612e-06" y1="270" x2="495.5" y2="277" gradientUnits="userSpaceOnUse">
<stop stop-color="white"/>
<stop offset="1" stop-color="#999999" stop-opacity="0.5"/>
</linearGradient>
<linearGradient id="paint51_linear_256_3774" x1="-1.59612e-06" y1="270" x2="495.5" y2="277" gradientUnits="userSpaceOnUse">
<stop stop-color="white"/>
<stop offset="1" stop-color="#999999" stop-opacity="0.5"/>
</linearGradient>
</defs>
</svg>
