<svg width="24" height="24" viewBox="0 0 24 24" fill="none" xmlns="http://www.w3.org/2000/svg">
<rect width="23.8691" height="23.8691" rx="4" fill="black" fill-opacity="0.16"/>
<g clip-path="url(#clip0_132_666)">
<mask id="mask0_132_666" style="mask-type:luminance" maskUnits="userSpaceOnUse" x="3" y="3" width="18" height="18">
<path d="M20.8691 20.8691H3V3H20.8691V20.8691Z" fill="white"/>
</mask>
<g mask="url(#mask0_132_666)">
<path fill-rule="evenodd" clip-rule="evenodd" d="M3 16.4912H5.45701H5.50168V16.4917C6.54195 16.5154 7.37794 17.3662 7.37794 18.4121V20.8691H7.91401V18.3675C7.91401 17.3312 8.75404 16.4912 9.79027 16.4912C10.8265 16.4912 11.6665 17.3312 11.6665 18.3675V20.8691H12.2026V18.3675C12.2026 17.3312 13.0426 16.4912 14.0789 16.4912C15.1151 16.4912 15.9551 17.3312 15.9551 18.3675V20.8691H16.5805V18.3675C16.5805 17.3312 17.4206 16.4912 18.4568 16.4912H20.8691V15.9551H18.3675C17.3312 15.9551 16.4912 15.1151 16.4912 14.0789C16.4912 13.0426 17.3312 12.2026 18.3675 12.2026H20.8691V11.6665H18.3675C17.3312 11.6665 16.4912 10.8265 16.4912 9.79027C16.4912 8.75404 17.3312 7.91401 18.3675 7.91401H20.8691V7.37794H18.4568C17.4206 7.37794 16.5805 6.53791 16.5805 5.50168V5.41233V3H15.9551V5.50168C15.9551 6.53791 15.1151 7.37794 14.0789 7.37794C13.0426 7.37794 12.2026 6.53791 12.2026 5.50168V3H11.6665V5.50168C11.6665 6.53791 10.8265 7.37794 9.79027 7.37794C8.75404 7.37794 7.91401 6.53791 7.91401 5.50168V3H7.37794V5.45701C7.37794 6.50298 6.54195 7.35373 5.50168 7.3774V7.37794H5.45701H3V7.91401H5.50168C6.53791 7.91401 7.37794 8.75404 7.37794 9.79027C7.37794 10.8265 6.53791 11.6665 5.50168 11.6665H3V12.2026H5.50168C6.53791 12.2026 7.37794 13.0426 7.37794 14.0789C7.37794 15.1151 6.53791 15.9551 5.50168 15.9551H3V16.4912ZM9.79027 12.2026C10.8265 12.2026 11.6665 13.0426 11.6665 14.0789C11.6665 15.1151 10.8265 15.9551 9.79027 15.9551C8.75404 15.9551 7.91401 15.1151 7.91401 14.0789C7.91401 13.0426 8.75404 12.2026 9.79027 12.2026ZM14.0789 12.2026C15.1151 12.2026 15.9551 13.0426 15.9551 14.0789C15.9551 15.1151 15.1151 15.9551 14.0789 15.9551C13.0426 15.9551 12.2026 15.1151 12.2026 14.0789C12.2026 13.0426 13.0426 12.2026 14.0789 12.2026ZM11.6665 9.79027C11.6665 8.75404 10.8265 7.91401 9.79027 7.91401C8.75404 7.91401 7.91401 8.75404 7.91401 9.79027C7.91401 10.8265 8.75404 11.6665 9.79027 11.6665C10.8265 11.6665 11.6665 10.8265 11.6665 9.79027ZM14.0789 7.91401C15.1151 7.91401 15.9551 8.75404 15.9551 9.79027C15.9551 10.8265 15.1151 11.6665 14.0789 11.6665C13.0426 11.6665 12.2026 10.8265 12.2026 9.79027C12.2026 8.75404 13.0426 7.91401 14.0789 7.91401Z" fill="url(#paint0_linear_132_666)"/>
</g>
</g>
<defs>
<linearGradient id="paint0_linear_132_666" x1="4.83159" y1="19.4396" x2="11.9346" y2="3" gradientUnits="userSpaceOnUse">
<stop stop-color="#ACAAFF"/>
<stop offset="1" stop-color="#C0E8FF"/>
</linearGradient>
<clipPath id="clip0_132_666">
<rect width="17.8691" height="17.8691" fill="white" transform="matrix(1 0 0 -1 3 20.8691)"/>
</clipPath>
</defs>
</svg>
