<svg width="79" height="20" viewBox="0 0 79 20" fill="none" xmlns="http://www.w3.org/2000/svg">
<path d="M65.6409 1.0323C66.1299 0.900027 66.6343 1.18597 66.7677 1.67098C67.8423 5.57948 69.6646 7.52812 71.3856 8.44817C71.591 8.55794 71.7965 8.65396 72.001 8.73744L77.3529 8.73744C77.9865 8.73744 78.5 9.24686 78.5 9.87527C78.5 10.5037 77.9865 11.0131 77.3529 11.0131H76.4067C76.2779 11.0419 76.1414 11.0434 76.0056 11.0131H74.9983C74.6253 11.041 74.2298 11.0433 73.8187 11.0131H72.7347C72.2926 11.1344 71.8387 11.3096 71.3856 11.5518C69.6646 12.4719 67.8423 14.4205 66.7677 18.329C66.6343 18.814 66.1299 19.1 65.6409 18.9677C65.152 18.8354 64.8637 18.335 64.997 17.85C65.8967 14.5777 67.3275 12.3971 68.9568 11.0131L1.64706 11.0131C1.01356 11.0131 0.5 10.5037 0.5 9.87527C0.5 9.24687 1.01356 8.73745 1.64706 8.73745L68.6748 8.73744C67.163 7.34572 65.8444 5.23205 64.997 2.14999C64.8637 1.66499 65.152 1.16458 65.6409 1.0323Z" fill="white" stroke="white" stroke-linecap="round"/>
</svg>
